<?xml version="1.0" encoding="us-ascii" standalone="no"?><svg xmlns="http://www.w3.org/2000/svg" xmlns:xlink="http://www.w3.org/1999/xlink" contentStyleType="text/css" height="485px" preserveAspectRatio="none" style="width:1541px;height:485px;background:#FFFFFF;" version="1.1" viewBox="0 0 1541 485" width="1541px" zoomAndPan="magnify"><defs/><g><!--class abstract--><g id="elem_abstract"><rect codeLine="1" fill="#F1F1F1" height="48" id="abstract" rx="2.5" ry="2.5" style="stroke:#181818;stroke-width:0.5;" width="90" x="49" y="7"/><ellipse cx="64" cy="23" fill="#A9DCDF" rx="11" ry="11" style="stroke:#181818;stroke-width:1.0;"/><path d="M66.0781,24.8125 L66.4688,25.7969 L66.0781,25.7969 C65.625,25.7969 65.5156,25.8125 65.3594,25.9219 C65.1094,26.0781 64.9531,26.3594 64.9531,26.6563 C64.9531,26.9219 65.0938,27.1719 65.3125,27.3281 C65.4531,27.4531 65.6563,27.5 66.0781,27.5 L68.4375,27.5 C68.7969,27.5 69.0156,27.4688 69.1563,27.375 C69.4063,27.2344 69.5625,26.9375 69.5625,26.6563 C69.5625,26.375 69.4219,26.125 69.2031,25.9688 C69.0313,25.8281 68.875,25.7969 68.4063,25.7969 L65.0156,17.5938 L61.3438,17.5938 C60.8906,17.5938 60.7656,17.6094 60.6094,17.7031 C60.3594,17.875 60.2031,18.1563 60.2031,18.4375 C60.2031,18.7188 60.3438,18.9688 60.5625,19.1406 C60.7344,19.25 60.9063,19.2813 61.3438,19.2813 L62.4219,19.2813 L59.7813,25.7969 C59.3594,25.7969 59.2031,25.8125 59.0469,25.9219 C58.7969,26.0781 58.6406,26.3594 58.6406,26.6563 C58.6406,27.2188 59.0156,27.5 59.7656,27.5 L62.0313,27.5 C62.3906,27.5 62.6094,27.4688 62.7344,27.375 C63,27.2344 63.1406,26.9375 63.1406,26.6563 C63.1406,26.375 63.0156,26.125 62.7969,25.9531 C62.625,25.8281 62.4844,25.7969 62.0313,25.7969 L61.6406,25.7969 L62.0313,24.8125 L66.0781,24.8125 Z M65.375,23.1094 L62.7031,23.1094 L64.0469,19.8438 L65.375,23.1094 Z " fill="#000000"/><text fill="#000000" font-family="sans-serif" font-size="14" font-style="italic" lengthAdjust="spacing" textLength="58" x="78" y="27.8467">abstract</text><line style="stroke:#181818;stroke-width:0.5;" x1="50" x2="138" y1="39" y2="39"/><line style="stroke:#181818;stroke-width:0.5;" x1="50" x2="138" y1="47" y2="47"/></g><!--class abstract class--><g id="elem_abstract class"><rect codeLine="3" fill="#F1F1F1" height="48" id="abstract class" rx="2.5" ry="2.5" style="stroke:#181818;stroke-width:0.5;" width="129" x="174.5" y="7"/><ellipse cx="189.5" cy="23" fill="#A9DCDF" rx="11" ry="11" style="stroke:#181818;stroke-width:1.0;"/><path d="M191.5781,24.8125 L191.9688,25.7969 L191.5781,25.7969 C191.125,25.7969 191.0156,25.8125 190.8594,25.9219 C190.6094,26.0781 190.4531,26.3594 190.4531,26.6563 C190.4531,26.9219 190.5938,27.1719 190.8125,27.3281 C190.9531,27.4531 191.1563,27.5 191.5781,27.5 L193.9375,27.5 C194.2969,27.5 194.5156,27.4688 194.6563,27.375 C194.9063,27.2344 195.0625,26.9375 195.0625,26.6563 C195.0625,26.375 194.9219,26.125 194.7031,25.9688 C194.5313,25.8281 194.375,25.7969 193.9063,25.7969 L190.5156,17.5938 L186.8438,17.5938 C186.3906,17.5938 186.2656,17.6094 186.1094,17.7031 C185.8594,17.875 185.7031,18.1563 185.7031,18.4375 C185.7031,18.7188 185.8438,18.9688 186.0625,19.1406 C186.2344,19.25 186.4063,19.2813 186.8438,19.2813 L187.9219,19.2813 L185.2813,25.7969 C184.8594,25.7969 184.7031,25.8125 184.5469,25.9219 C184.2969,26.0781 184.1406,26.3594 184.1406,26.6563 C184.1406,27.2188 184.5156,27.5 185.2656,27.5 L187.5313,27.5 C187.8906,27.5 188.1094,27.4688 188.2344,27.375 C188.5,27.2344 188.6406,26.9375 188.6406,26.6563 C188.6406,26.375 188.5156,26.125 188.2969,25.9531 C188.125,25.8281 187.9844,25.7969 187.5313,25.7969 L187.1406,25.7969 L187.5313,24.8125 L191.5781,24.8125 Z M190.875,23.1094 L188.2031,23.1094 L189.5469,19.8438 L190.875,23.1094 Z " fill="#000000"/><text fill="#000000" font-family="sans-serif" font-size="14" font-style="italic" lengthAdjust="spacing" textLength="97" x="203.5" y="27.8467">abstract class</text><line style="stroke:#181818;stroke-width:0.5;" x1="175.5" x2="302.5" y1="39" y2="39"/><line style="stroke:#181818;stroke-width:0.5;" x1="175.5" x2="302.5" y1="47" y2="47"/></g><!--class annotation--><g id="elem_annotation"><rect codeLine="4" fill="#F1F1F1" height="48" id="annotation" rx="2.5" ry="2.5" style="stroke:#181818;stroke-width:0.5;" width="111" x="338.5" y="7"/><ellipse cx="353.5" cy="23" fill="#E3664A" rx="11" ry="11" style="stroke:#181818;stroke-width:1.0;"/><path d="M354.4219,20.25 C352.5156,20.3906 351.2031,21.5781 351.2031,23.1563 C351.2031,24.5625 352.4063,25.7813 353.8594,25.7813 C354.0156,25.7813 354.1563,25.7656 354.4219,25.7188 L354.4219,25.7813 L355.2188,25.7813 C355.8438,25.7813 356.1563,25.5625 356.1563,25.0781 C356.1563,24.7969 356.0313,24.6094 355.7656,24.4844 L355.7656,19.7031 C355.7656,17.8125 354.4531,16.4531 352.6094,16.4531 C350.4063,16.4531 348.7969,18.5781 348.7969,21.5156 L348.7969,24.375 C348.7969,25.625 349.0781,26.8438 349.5938,27.7656 C350.3125,29.0156 351.2344,29.5781 352.6406,29.5781 C354.25,29.5781 355.6406,28.9219 355.6406,28.125 C355.6406,27.7344 355.3438,27.4219 354.9688,27.4219 C354.7656,27.4219 354.6719,27.4688 354.4375,27.7188 C354.1094,28.0469 353.4375,28.2656 352.6875,28.2656 C351.9375,28.2656 351.4063,28 351,27.4063 C350.4219,26.6094 350.1406,25.5625 350.1406,24.2656 L350.1406,21.6094 C350.1406,19.4375 351.2031,17.7969 352.6406,17.7969 C353.6875,17.7969 354.4219,18.5781 354.4219,19.7031 L354.4219,20.25 Z M354.4219,24.3594 C354.1875,24.4063 354.0938,24.4063 353.9844,24.4063 C353.1563,24.4063 352.5469,23.875 352.5469,23.1719 C352.5469,22.3438 353.2969,21.7344 354.4219,21.625 L354.4219,24.3594 Z " fill="#000000"/><text fill="#000000" font-family="sans-serif" font-size="14" lengthAdjust="spacing" textLength="79" x="367.5" y="27.8467">annotation</text><line style="stroke:#181818;stroke-width:0.5;" x1="339.5" x2="448.5" y1="39" y2="39"/><line style="stroke:#181818;stroke-width:0.5;" x1="339.5" x2="448.5" y1="47" y2="47"/></g><!--entity circle--><g id="elem_circle"><ellipse cx="512" cy="31" fill="#F1F1F1" rx="8" ry="8" style="stroke:#181818;stroke-width:0.5;"/><text fill="#000000" font-family="sans-serif" font-size="14" lengthAdjust="spacing" textLength="39" x="492.5" y="60.9951">circle</text></g><!--entity circle_short_form--><g id="elem_circle_short_form"><ellipse cx="94" cy="166" fill="#F1F1F1" rx="8" ry="8" style="stroke:#181818;stroke-width:0.5;"/><text fill="#000000" font-family="sans-serif" font-size="14" lengthAdjust="spacing" textLength="126" x="31" y="195.9951">circle_short_form</text></g><!--class class--><g id="elem_class"><rect codeLine="7" fill="#F1F1F1" height="48" id="class" rx="2.5" ry="2.5" style="stroke:#181818;stroke-width:0.5;" width="66" x="200" y="142"/><ellipse cx="215" cy="158" fill="#ADD1B2" rx="11" ry="11" style="stroke:#181818;stroke-width:1.0;"/><path d="M217.3438,153.6719 C216.4063,153.2344 215.8125,153.0938 214.9375,153.0938 C212.3125,153.0938 210.3125,155.1719 210.3125,157.8906 L210.3125,159.0156 C210.3125,161.5938 212.4219,163.4844 215.3125,163.4844 C216.5313,163.4844 217.6875,163.1875 218.4375,162.6406 C219.0156,162.2344 219.3438,161.7813 219.3438,161.3906 C219.3438,160.9375 218.9531,160.5469 218.4844,160.5469 C218.2656,160.5469 218.0625,160.625 217.875,160.8125 C217.4219,161.2969 217.4219,161.2969 217.2344,161.3906 C216.8125,161.6563 216.125,161.7813 215.3594,161.7813 C213.3125,161.7813 212.0156,160.6875 212.0156,158.9844 L212.0156,157.8906 C212.0156,156.1094 213.2656,154.7969 215,154.7969 C215.5781,154.7969 216.1875,154.9531 216.6563,155.2031 C217.1406,155.4844 217.3125,155.7031 217.4063,156.1094 C217.4688,156.5156 217.5,156.6406 217.6406,156.7656 C217.7813,156.9063 218.0156,157.0156 218.2344,157.0156 C218.5,157.0156 218.7656,156.875 218.9375,156.6563 C219.0469,156.5 219.0781,156.3125 219.0781,155.8906 L219.0781,154.4688 C219.0781,154.0313 219.0625,153.9063 218.9688,153.75 C218.8125,153.4844 218.5313,153.3438 218.2344,153.3438 C217.9375,153.3438 217.7344,153.4375 217.5156,153.75 L217.3438,153.6719 Z " fill="#000000"/><text fill="#000000" font-family="sans-serif" font-size="14" lengthAdjust="spacing" textLength="34" x="229" y="162.8467">class</text><line style="stroke:#181818;stroke-width:0.5;" x1="201" x2="265" y1="174" y2="174"/><line style="stroke:#181818;stroke-width:0.5;" x1="201" x2="265" y1="182" y2="182"/></g><g id="elem_diamond"><polygon fill="#F1F1F1" points="313,154,325,166,313,178,301,166,313,154" style="stroke:#181818;stroke-width:0.5;"/></g><polygon fill="#F1F1F1" points="372,154,384,166,372,178,360,166,372,154" style="stroke:#181818;stroke-width:0.5;"/><!--class entity--><g id="elem_entity"><rect codeLine="10" fill="#F1F1F1" height="48" id="entity" rx="2.5" ry="2.5" style="stroke:#181818;stroke-width:0.5;" width="76" x="56" y="272.5"/><ellipse cx="71" cy="288.5" fill="#ADD1B2" rx="11" ry="11" style="stroke:#181818;stroke-width:1.0;"/><path d="M69.7969,289.375 L71.25,289.375 L71.25,289.4844 C71.25,289.8906 71.2813,290.0469 71.3594,290.2031 C71.5156,290.4531 71.7969,290.6094 72.0938,290.6094 C72.3438,290.6094 72.6094,290.4688 72.7656,290.25 C72.8906,290.0938 72.9219,289.9375 72.9219,289.4844 L72.9219,287.5625 C72.9219,287.4063 72.9219,287.3594 72.9063,287.2031 C72.8438,286.7344 72.5313,286.4219 72.0781,286.4219 C71.8281,286.4219 71.5625,286.5625 71.3906,286.7813 C71.2813,286.9531 71.25,287.1094 71.25,287.5625 L71.25,287.6875 L69.7969,287.6875 L69.7969,285.2813 L73.7813,285.2813 L73.7813,286.1406 C73.7813,286.5469 73.8125,286.7188 73.8906,286.875 C74.0625,287.125 74.3438,287.2813 74.625,287.2813 C74.8906,287.2813 75.1563,287.1406 75.3281,286.9219 C75.4375,286.75 75.4688,286.6094 75.4688,286.1406 L75.4688,283.5938 L67.8438,283.5938 C67.4063,283.5938 67.2813,283.6094 67.125,283.7031 C66.875,283.8594 66.7188,284.1563 66.7188,284.4375 C66.7188,284.7188 66.8594,284.9688 67.0781,285.1406 C67.2344,285.25 67.4219,285.2813 67.8438,285.2813 L68.0938,285.2813 L68.0938,291.7969 L67.8438,291.7969 C67.4375,291.7969 67.2813,291.8125 67.125,291.9219 C66.875,292.0938 66.7188,292.3594 66.7188,292.6563 C66.7188,292.9219 66.8594,293.1719 67.0781,293.3281 C67.2188,293.4531 67.4531,293.5 67.8438,293.5 L75.8438,293.5 L75.8438,290.9219 C75.8438,290.4844 75.8125,290.3438 75.7344,290.1875 C75.5625,289.9375 75.2813,289.7813 75,289.7813 C74.7344,289.7813 74.4688,289.8906 74.2969,290.1406 C74.1875,290.2969 74.1563,290.4375 74.1563,290.9219 L74.1563,291.7969 L69.7969,291.7969 L69.7969,289.375 Z " fill="#000000"/><text fill="#000000" font-family="sans-serif" font-size="14" lengthAdjust="spacing" textLength="44" x="85" y="293.3467">entity</text><line style="stroke:#181818;stroke-width:0.5;" x1="57" x2="131" y1="304.5" y2="304.5"/><line style="stroke:#181818;stroke-width:0.5;" x1="57" x2="131" y1="312.5" y2="312.5"/></g><!--class enum--><g id="elem_enum"><rect codeLine="11" fill="#F1F1F1" height="48" id="enum" rx="2.5" ry="2.5" style="stroke:#181818;stroke-width:0.5;" width="72" x="167" y="272.5"/><ellipse cx="182" cy="288.5" fill="#EB937F" rx="11" ry="11" style="stroke:#181818;stroke-width:1.0;"/><path d="M180.7969,289.375 L182.25,289.375 L182.25,289.4844 C182.25,289.8906 182.2813,290.0469 182.3594,290.2031 C182.5156,290.4531 182.7969,290.6094 183.0938,290.6094 C183.3438,290.6094 183.6094,290.4688 183.7656,290.25 C183.8906,290.0938 183.9219,289.9375 183.9219,289.4844 L183.9219,287.5625 C183.9219,287.4063 183.9219,287.3594 183.9063,287.2031 C183.8438,286.7344 183.5313,286.4219 183.0781,286.4219 C182.8281,286.4219 182.5625,286.5625 182.3906,286.7813 C182.2813,286.9531 182.25,287.1094 182.25,287.5625 L182.25,287.6875 L180.7969,287.6875 L180.7969,285.2813 L184.7813,285.2813 L184.7813,286.1406 C184.7813,286.5469 184.8125,286.7188 184.8906,286.875 C185.0625,287.125 185.3438,287.2813 185.625,287.2813 C185.8906,287.2813 186.1563,287.1406 186.3281,286.9219 C186.4375,286.75 186.4688,286.6094 186.4688,286.1406 L186.4688,283.5938 L178.8438,283.5938 C178.4063,283.5938 178.2813,283.6094 178.125,283.7031 C177.875,283.8594 177.7188,284.1563 177.7188,284.4375 C177.7188,284.7188 177.8594,284.9688 178.0781,285.1406 C178.2344,285.25 178.4219,285.2813 178.8438,285.2813 L179.0938,285.2813 L179.0938,291.7969 L178.8438,291.7969 C178.4375,291.7969 178.2813,291.8125 178.125,291.9219 C177.875,292.0938 177.7188,292.3594 177.7188,292.6563 C177.7188,292.9219 177.8594,293.1719 178.0781,293.3281 C178.2188,293.4531 178.4531,293.5 178.8438,293.5 L186.8438,293.5 L186.8438,290.9219 C186.8438,290.4844 186.8125,290.3438 186.7344,290.1875 C186.5625,289.9375 186.2813,289.7813 186,289.7813 C185.7344,289.7813 185.4688,289.8906 185.2969,290.1406 C185.1875,290.2969 185.1563,290.4375 185.1563,290.9219 L185.1563,291.7969 L180.7969,291.7969 L180.7969,289.375 Z " fill="#000000"/><text fill="#000000" font-family="sans-serif" font-size="14" lengthAdjust="spacing" textLength="40" x="196" y="293.3467">enum</text><line style="stroke:#181818;stroke-width:0.5;" x1="168" x2="238" y1="304.5" y2="304.5"/><line style="stroke:#181818;stroke-width:0.5;" x1="168" x2="238" y1="312.5" y2="312.5"/></g><!--class interface--><g id="elem_interface"><rect codeLine="12" fill="#F1F1F1" height="48" id="interface" rx="2.5" ry="2.5" style="stroke:#181818;stroke-width:0.5;" width="96" x="274" y="272.5"/><ellipse cx="289" cy="288.5" fill="#B4A7E5" rx="11" ry="11" style="stroke:#181818;stroke-width:1.0;"/><path d="M289.9531,285.2813 L291.6719,285.2813 C292.0625,285.2813 292.25,285.25 292.375,285.1719 C292.6406,285.0156 292.7813,284.7344 292.7813,284.4375 C292.7813,284.1719 292.6719,283.9063 292.4375,283.7344 C292.2656,283.625 292.125,283.5938 291.6719,283.5938 L286.5313,283.5938 C286.0938,283.5938 285.9688,283.6094 285.8125,283.7031 C285.5625,283.8594 285.4063,284.1563 285.4063,284.4375 C285.4063,284.7188 285.5469,284.9688 285.7656,285.1406 C285.9219,285.25 286.1094,285.2813 286.5313,285.2813 L288.25,285.2813 L288.25,291.7969 L286.5313,291.7969 C286.0938,291.7969 285.9688,291.8125 285.8125,291.9219 C285.5625,292.0781 285.4063,292.3594 285.4063,292.6563 C285.4063,292.9063 285.5469,293.1719 285.7656,293.3281 C285.9219,293.4531 286.125,293.5 286.5313,293.5 L291.6719,293.5 C292.4219,293.5 292.7813,293.2188 292.7813,292.6563 C292.7813,292.375 292.6719,292.125 292.4375,291.9531 C292.2656,291.8281 292.125,291.7969 291.6719,291.7969 L289.9531,291.7969 L289.9531,285.2813 Z " fill="#000000"/><text fill="#000000" font-family="sans-serif" font-size="14" font-style="italic" lengthAdjust="spacing" textLength="64" x="303" y="293.3467">interface</text><line style="stroke:#181818;stroke-width:0.5;" x1="275" x2="369" y1="304.5" y2="304.5"/><line style="stroke:#181818;stroke-width:0.5;" x1="275" x2="369" y1="312.5" y2="312.5"/></g><!--class Class01--><g id="elem_Class01"><rect fill="#F1F1F1" height="48" id="Class01" rx="2.5" ry="2.5" style="stroke:#181818;stroke-width:0.5;" width="86" x="574" y="7"/><ellipse cx="589" cy="23" fill="#ADD1B2" rx="11" ry="11" style="stroke:#181818;stroke-width:1.0;"/><path d="M591.3438,18.6719 C590.4063,18.2344 589.8125,18.0938 588.9375,18.0938 C586.3125,18.0938 584.3125,20.1719 584.3125,22.8906 L584.3125,24.0156 C584.3125,26.5938 586.4219,28.4844 589.3125,28.4844 C590.5313,28.4844 591.6875,28.1875 592.4375,27.6406 C593.0156,27.2344 593.3438,26.7813 593.3438,26.3906 C593.3438,25.9375 592.9531,25.5469 592.4844,25.5469 C592.2656,25.5469 592.0625,25.625 591.875,25.8125 C591.4219,26.2969 591.4219,26.2969 591.2344,26.3906 C590.8125,26.6563 590.125,26.7813 589.3594,26.7813 C587.3125,26.7813 586.0156,25.6875 586.0156,23.9844 L586.0156,22.8906 C586.0156,21.1094 587.2656,19.7969 589,19.7969 C589.5781,19.7969 590.1875,19.9531 590.6563,20.2031 C591.1406,20.4844 591.3125,20.7031 591.4063,21.1094 C591.4688,21.5156 591.5,21.6406 591.6406,21.7656 C591.7813,21.9063 592.0156,22.0156 592.2344,22.0156 C592.5,22.0156 592.7656,21.875 592.9375,21.6563 C593.0469,21.5 593.0781,21.3125 593.0781,20.8906 L593.0781,19.4688 C593.0781,19.0313 593.0625,18.9063 592.9688,18.75 C592.8125,18.4844 592.5313,18.3438 592.2344,18.3438 C591.9375,18.3438 591.7344,18.4375 591.5156,18.75 L591.3438,18.6719 Z " fill="#000000"/><text fill="#000000" font-family="sans-serif" font-size="14" lengthAdjust="spacing" textLength="54" x="603" y="27.8467">Class01</text><line style="stroke:#181818;stroke-width:0.5;" x1="575" x2="659" y1="39" y2="39"/><line style="stroke:#181818;stroke-width:0.5;" x1="575" x2="659" y1="47" y2="47"/></g><!--class Class02--><g id="elem_Class02"><rect fill="#F1F1F1" height="48" id="Class02" rx="2.5" ry="2.5" style="stroke:#181818;stroke-width:0.5;" width="85" x="574.5" y="142"/><ellipse cx="589.5" cy="158" fill="#ADD1B2" rx="11" ry="11" style="stroke:#181818;stroke-width:1.0;"/><path d="M591.8438,153.6719 C590.9063,153.2344 590.3125,153.0938 589.4375,153.0938 C586.8125,153.0938 584.8125,155.1719 584.8125,157.8906 L584.8125,159.0156 C584.8125,161.5938 586.9219,163.4844 589.8125,163.4844 C591.0313,163.4844 592.1875,163.1875 592.9375,162.6406 C593.5156,162.2344 593.8438,161.7813 593.8438,161.3906 C593.8438,160.9375 593.4531,160.5469 592.9844,160.5469 C592.7656,160.5469 592.5625,160.625 592.375,160.8125 C591.9219,161.2969 591.9219,161.2969 591.7344,161.3906 C591.3125,161.6563 590.625,161.7813 589.8594,161.7813 C587.8125,161.7813 586.5156,160.6875 586.5156,158.9844 L586.5156,157.8906 C586.5156,156.1094 587.7656,154.7969 589.5,154.7969 C590.0781,154.7969 590.6875,154.9531 591.1563,155.2031 C591.6406,155.4844 591.8125,155.7031 591.9063,156.1094 C591.9688,156.5156 592,156.6406 592.1406,156.7656 C592.2813,156.9063 592.5156,157.0156 592.7344,157.0156 C593,157.0156 593.2656,156.875 593.4375,156.6563 C593.5469,156.5 593.5781,156.3125 593.5781,155.8906 L593.5781,154.4688 C593.5781,154.0313 593.5625,153.9063 593.4688,153.75 C593.3125,153.4844 593.0313,153.3438 592.7344,153.3438 C592.4375,153.3438 592.2344,153.4375 592.0156,153.75 L591.8438,153.6719 Z " fill="#000000"/><text fill="#000000" font-family="sans-serif" font-size="14" lengthAdjust="spacing" textLength="53" x="603.5" y="162.8467">Class02</text><line style="stroke:#181818;stroke-width:0.5;" x1="575.5" x2="658.5" y1="174" y2="174"/><line style="stroke:#181818;stroke-width:0.5;" x1="575.5" x2="658.5" y1="182" y2="182"/></g><!--class Class03--><g id="elem_Class03"><rect fill="#F1F1F1" height="48" id="Class03" rx="2.5" ry="2.5" style="stroke:#181818;stroke-width:0.5;" width="86" x="695" y="7"/><ellipse cx="710" cy="23" fill="#ADD1B2" rx="11" ry="11" style="stroke:#181818;stroke-width:1.0;"/><path d="M712.3438,18.6719 C711.4063,18.2344 710.8125,18.0938 709.9375,18.0938 C707.3125,18.0938 705.3125,20.1719 705.3125,22.8906 L705.3125,24.0156 C705.3125,26.5938 707.4219,28.4844 710.3125,28.4844 C711.5313,28.4844 712.6875,28.1875 713.4375,27.6406 C714.0156,27.2344 714.3438,26.7813 714.3438,26.3906 C714.3438,25.9375 713.9531,25.5469 713.4844,25.5469 C713.2656,25.5469 713.0625,25.625 712.875,25.8125 C712.4219,26.2969 712.4219,26.2969 712.2344,26.3906 C711.8125,26.6563 711.125,26.7813 710.3594,26.7813 C708.3125,26.7813 707.0156,25.6875 707.0156,23.9844 L707.0156,22.8906 C707.0156,21.1094 708.2656,19.7969 710,19.7969 C710.5781,19.7969 711.1875,19.9531 711.6563,20.2031 C712.1406,20.4844 712.3125,20.7031 712.4063,21.1094 C712.4688,21.5156 712.5,21.6406 712.6406,21.7656 C712.7813,21.9063 713.0156,22.0156 713.2344,22.0156 C713.5,22.0156 713.7656,21.875 713.9375,21.6563 C714.0469,21.5 714.0781,21.3125 714.0781,20.8906 L714.0781,19.4688 C714.0781,19.0313 714.0625,18.9063 713.9688,18.75 C713.8125,18.4844 713.5313,18.3438 713.2344,18.3438 C712.9375,18.3438 712.7344,18.4375 712.5156,18.75 L712.3438,18.6719 Z " fill="#000000"/><text fill="#000000" font-family="sans-serif" font-size="14" lengthAdjust="spacing" textLength="54" x="724" y="27.8467">Class03</text><line style="stroke:#181818;stroke-width:0.5;" x1="696" x2="780" y1="39" y2="39"/><line style="stroke:#181818;stroke-width:0.5;" x1="696" x2="780" y1="47" y2="47"/></g><!--class Class04--><g id="elem_Class04"><rect fill="#F1F1F1" height="48" id="Class04" rx="2.5" ry="2.5" style="stroke:#181818;stroke-width:0.5;" width="85" x="695.5" y="142"/><ellipse cx="710.5" cy="158" fill="#ADD1B2" rx="11" ry="11" style="stroke:#181818;stroke-width:1.0;"/><path d="M712.8438,153.6719 C711.9063,153.2344 711.3125,153.0938 710.4375,153.0938 C707.8125,153.0938 705.8125,155.1719 705.8125,157.8906 L705.8125,159.0156 C705.8125,161.5938 707.9219,163.4844 710.8125,163.4844 C712.0313,163.4844 713.1875,163.1875 713.9375,162.6406 C714.5156,162.2344 714.8438,161.7813 714.8438,161.3906 C714.8438,160.9375 714.4531,160.5469 713.9844,160.5469 C713.7656,160.5469 713.5625,160.625 713.375,160.8125 C712.9219,161.2969 712.9219,161.2969 712.7344,161.3906 C712.3125,161.6563 711.625,161.7813 710.8594,161.7813 C708.8125,161.7813 707.5156,160.6875 707.5156,158.9844 L707.5156,157.8906 C707.5156,156.1094 708.7656,154.7969 710.5,154.7969 C711.0781,154.7969 711.6875,154.9531 712.1563,155.2031 C712.6406,155.4844 712.8125,155.7031 712.9063,156.1094 C712.9688,156.5156 713,156.6406 713.1406,156.7656 C713.2813,156.9063 713.5156,157.0156 713.7344,157.0156 C714,157.0156 714.2656,156.875 714.4375,156.6563 C714.5469,156.5 714.5781,156.3125 714.5781,155.8906 L714.5781,154.4688 C714.5781,154.0313 714.5625,153.9063 714.4688,153.75 C714.3125,153.4844 714.0313,153.3438 713.7344,153.3438 C713.4375,153.3438 713.2344,153.4375 713.0156,153.75 L712.8438,153.6719 Z " fill="#000000"/><text fill="#000000" font-family="sans-serif" font-size="14" lengthAdjust="spacing" textLength="53" x="724.5" y="162.8467">Class04</text><line style="stroke:#181818;stroke-width:0.5;" x1="696.5" x2="779.5" y1="174" y2="174"/><line style="stroke:#181818;stroke-width:0.5;" x1="696.5" x2="779.5" y1="182" y2="182"/></g><!--class Class05--><g id="elem_Class05"><rect fill="#F1F1F1" height="48" id="Class05" rx="2.5" ry="2.5" style="stroke:#181818;stroke-width:0.5;" width="86" x="816" y="7"/><ellipse cx="831" cy="23" fill="#ADD1B2" rx="11" ry="11" style="stroke:#181818;stroke-width:1.0;"/><path d="M833.3438,18.6719 C832.4063,18.2344 831.8125,18.0938 830.9375,18.0938 C828.3125,18.0938 826.3125,20.1719 826.3125,22.8906 L826.3125,24.0156 C826.3125,26.5938 828.4219,28.4844 831.3125,28.4844 C832.5313,28.4844 833.6875,28.1875 834.4375,27.6406 C835.0156,27.2344 835.3438,26.7813 835.3438,26.3906 C835.3438,25.9375 834.9531,25.5469 834.4844,25.5469 C834.2656,25.5469 834.0625,25.625 833.875,25.8125 C833.4219,26.2969 833.4219,26.2969 833.2344,26.3906 C832.8125,26.6563 832.125,26.7813 831.3594,26.7813 C829.3125,26.7813 828.0156,25.6875 828.0156,23.9844 L828.0156,22.8906 C828.0156,21.1094 829.2656,19.7969 831,19.7969 C831.5781,19.7969 832.1875,19.9531 832.6563,20.2031 C833.1406,20.4844 833.3125,20.7031 833.4063,21.1094 C833.4688,21.5156 833.5,21.6406 833.6406,21.7656 C833.7813,21.9063 834.0156,22.0156 834.2344,22.0156 C834.5,22.0156 834.7656,21.875 834.9375,21.6563 C835.0469,21.5 835.0781,21.3125 835.0781,20.8906 L835.0781,19.4688 C835.0781,19.0313 835.0625,18.9063 834.9688,18.75 C834.8125,18.4844 834.5313,18.3438 834.2344,18.3438 C833.9375,18.3438 833.7344,18.4375 833.5156,18.75 L833.3438,18.6719 Z " fill="#000000"/><text fill="#000000" font-family="sans-serif" font-size="14" lengthAdjust="spacing" textLength="54" x="845" y="27.8467">Class05</text><line style="stroke:#181818;stroke-width:0.5;" x1="817" x2="901" y1="39" y2="39"/><line style="stroke:#181818;stroke-width:0.5;" x1="817" x2="901" y1="47" y2="47"/></g><!--class Class06--><g id="elem_Class06"><rect fill="#F1F1F1" height="48" id="Class06" rx="2.5" ry="2.5" style="stroke:#181818;stroke-width:0.5;" width="86" x="816" y="142"/><ellipse cx="831" cy="158" fill="#ADD1B2" rx="11" ry="11" style="stroke:#181818;stroke-width:1.0;"/><path d="M833.3438,153.6719 C832.4063,153.2344 831.8125,153.0938 830.9375,153.0938 C828.3125,153.0938 826.3125,155.1719 826.3125,157.8906 L826.3125,159.0156 C826.3125,161.5938 828.4219,163.4844 831.3125,163.4844 C832.5313,163.4844 833.6875,163.1875 834.4375,162.6406 C835.0156,162.2344 835.3438,161.7813 835.3438,161.3906 C835.3438,160.9375 834.9531,160.5469 834.4844,160.5469 C834.2656,160.5469 834.0625,160.625 833.875,160.8125 C833.4219,161.2969 833.4219,161.2969 833.2344,161.3906 C832.8125,161.6563 832.125,161.7813 831.3594,161.7813 C829.3125,161.7813 828.0156,160.6875 828.0156,158.9844 L828.0156,157.8906 C828.0156,156.1094 829.2656,154.7969 831,154.7969 C831.5781,154.7969 832.1875,154.9531 832.6563,155.2031 C833.1406,155.4844 833.3125,155.7031 833.4063,156.1094 C833.4688,156.5156 833.5,156.6406 833.6406,156.7656 C833.7813,156.9063 834.0156,157.0156 834.2344,157.0156 C834.5,157.0156 834.7656,156.875 834.9375,156.6563 C835.0469,156.5 835.0781,156.3125 835.0781,155.8906 L835.0781,154.4688 C835.0781,154.0313 835.0625,153.9063 834.9688,153.75 C834.8125,153.4844 834.5313,153.3438 834.2344,153.3438 C833.9375,153.3438 833.7344,153.4375 833.5156,153.75 L833.3438,153.6719 Z " fill="#000000"/><text fill="#000000" font-family="sans-serif" font-size="14" lengthAdjust="spacing" textLength="54" x="845" y="162.8467">Class06</text><line style="stroke:#181818;stroke-width:0.5;" x1="817" x2="901" y1="174" y2="174"/><line style="stroke:#181818;stroke-width:0.5;" x1="817" x2="901" y1="182" y2="182"/></g><!--class Class07--><g id="elem_Class07"><rect fill="#F1F1F1" height="48" id="Class07" rx="2.5" ry="2.5" style="stroke:#181818;stroke-width:0.5;" width="86" x="937" y="7"/><ellipse cx="952" cy="23" fill="#ADD1B2" rx="11" ry="11" style="stroke:#181818;stroke-width:1.0;"/><path d="M954.3438,18.6719 C953.4063,18.2344 952.8125,18.0938 951.9375,18.0938 C949.3125,18.0938 947.3125,20.1719 947.3125,22.8906 L947.3125,24.0156 C947.3125,26.5938 949.4219,28.4844 952.3125,28.4844 C953.5313,28.4844 954.6875,28.1875 955.4375,27.6406 C956.0156,27.2344 956.3438,26.7813 956.3438,26.3906 C956.3438,25.9375 955.9531,25.5469 955.4844,25.5469 C955.2656,25.5469 955.0625,25.625 954.875,25.8125 C954.4219,26.2969 954.4219,26.2969 954.2344,26.3906 C953.8125,26.6563 953.125,26.7813 952.3594,26.7813 C950.3125,26.7813 949.0156,25.6875 949.0156,23.9844 L949.0156,22.8906 C949.0156,21.1094 950.2656,19.7969 952,19.7969 C952.5781,19.7969 953.1875,19.9531 953.6563,20.2031 C954.1406,20.4844 954.3125,20.7031 954.4063,21.1094 C954.4688,21.5156 954.5,21.6406 954.6406,21.7656 C954.7813,21.9063 955.0156,22.0156 955.2344,22.0156 C955.5,22.0156 955.7656,21.875 955.9375,21.6563 C956.0469,21.5 956.0781,21.3125 956.0781,20.8906 L956.0781,19.4688 C956.0781,19.0313 956.0625,18.9063 955.9688,18.75 C955.8125,18.4844 955.5313,18.3438 955.2344,18.3438 C954.9375,18.3438 954.7344,18.4375 954.5156,18.75 L954.3438,18.6719 Z " fill="#000000"/><text fill="#000000" font-family="sans-serif" font-size="14" lengthAdjust="spacing" textLength="54" x="966" y="27.8467">Class07</text><line style="stroke:#181818;stroke-width:0.5;" x1="938" x2="1022" y1="39" y2="39"/><line style="stroke:#181818;stroke-width:0.5;" x1="938" x2="1022" y1="47" y2="47"/></g><!--class Class08--><g id="elem_Class08"><rect fill="#F1F1F1" height="48" id="Class08" rx="2.5" ry="2.5" style="stroke:#181818;stroke-width:0.5;" width="85" x="937.5" y="142"/><ellipse cx="952.5" cy="158" fill="#ADD1B2" rx="11" ry="11" style="stroke:#181818;stroke-width:1.0;"/><path d="M954.8438,153.6719 C953.9063,153.2344 953.3125,153.0938 952.4375,153.0938 C949.8125,153.0938 947.8125,155.1719 947.8125,157.8906 L947.8125,159.0156 C947.8125,161.5938 949.9219,163.4844 952.8125,163.4844 C954.0313,163.4844 955.1875,163.1875 955.9375,162.6406 C956.5156,162.2344 956.8438,161.7813 956.8438,161.3906 C956.8438,160.9375 956.4531,160.5469 955.9844,160.5469 C955.7656,160.5469 955.5625,160.625 955.375,160.8125 C954.9219,161.2969 954.9219,161.2969 954.7344,161.3906 C954.3125,161.6563 953.625,161.7813 952.8594,161.7813 C950.8125,161.7813 949.5156,160.6875 949.5156,158.9844 L949.5156,157.8906 C949.5156,156.1094 950.7656,154.7969 952.5,154.7969 C953.0781,154.7969 953.6875,154.9531 954.1563,155.2031 C954.6406,155.4844 954.8125,155.7031 954.9063,156.1094 C954.9688,156.5156 955,156.6406 955.1406,156.7656 C955.2813,156.9063 955.5156,157.0156 955.7344,157.0156 C956,157.0156 956.2656,156.875 956.4375,156.6563 C956.5469,156.5 956.5781,156.3125 956.5781,155.8906 L956.5781,154.4688 C956.5781,154.0313 956.5625,153.9063 956.4688,153.75 C956.3125,153.4844 956.0313,153.3438 955.7344,153.3438 C955.4375,153.3438 955.2344,153.4375 955.0156,153.75 L954.8438,153.6719 Z " fill="#000000"/><text fill="#000000" font-family="sans-serif" font-size="14" lengthAdjust="spacing" textLength="53" x="966.5" y="162.8467">Class08</text><line style="stroke:#181818;stroke-width:0.5;" x1="938.5" x2="1021.5" y1="174" y2="174"/><line style="stroke:#181818;stroke-width:0.5;" x1="938.5" x2="1021.5" y1="182" y2="182"/></g><!--class Class09--><g id="elem_Class09"><rect fill="#F1F1F1" height="48" id="Class09" rx="2.5" ry="2.5" style="stroke:#181818;stroke-width:0.5;" width="86" x="1058" y="7"/><ellipse cx="1073" cy="23" fill="#ADD1B2" rx="11" ry="11" style="stroke:#181818;stroke-width:1.0;"/><path d="M1075.3438,18.6719 C1074.4063,18.2344 1073.8125,18.0938 1072.9375,18.0938 C1070.3125,18.0938 1068.3125,20.1719 1068.3125,22.8906 L1068.3125,24.0156 C1068.3125,26.5938 1070.4219,28.4844 1073.3125,28.4844 C1074.5313,28.4844 1075.6875,28.1875 1076.4375,27.6406 C1077.0156,27.2344 1077.3438,26.7813 1077.3438,26.3906 C1077.3438,25.9375 1076.9531,25.5469 1076.4844,25.5469 C1076.2656,25.5469 1076.0625,25.625 1075.875,25.8125 C1075.4219,26.2969 1075.4219,26.2969 1075.2344,26.3906 C1074.8125,26.6563 1074.125,26.7813 1073.3594,26.7813 C1071.3125,26.7813 1070.0156,25.6875 1070.0156,23.9844 L1070.0156,22.8906 C1070.0156,21.1094 1071.2656,19.7969 1073,19.7969 C1073.5781,19.7969 1074.1875,19.9531 1074.6563,20.2031 C1075.1406,20.4844 1075.3125,20.7031 1075.4063,21.1094 C1075.4688,21.5156 1075.5,21.6406 1075.6406,21.7656 C1075.7813,21.9063 1076.0156,22.0156 1076.2344,22.0156 C1076.5,22.0156 1076.7656,21.875 1076.9375,21.6563 C1077.0469,21.5 1077.0781,21.3125 1077.0781,20.8906 L1077.0781,19.4688 C1077.0781,19.0313 1077.0625,18.9063 1076.9688,18.75 C1076.8125,18.4844 1076.5313,18.3438 1076.2344,18.3438 C1075.9375,18.3438 1075.7344,18.4375 1075.5156,18.75 L1075.3438,18.6719 Z " fill="#000000"/><text fill="#000000" font-family="sans-serif" font-size="14" lengthAdjust="spacing" textLength="54" x="1087" y="27.8467">Class09</text><line style="stroke:#181818;stroke-width:0.5;" x1="1059" x2="1143" y1="39" y2="39"/><line style="stroke:#181818;stroke-width:0.5;" x1="1059" x2="1143" y1="47" y2="47"/></g><!--class Class10--><g id="elem_Class10"><rect fill="#F1F1F1" height="48" id="Class10" rx="2.5" ry="2.5" style="stroke:#181818;stroke-width:0.5;" width="86" x="1058" y="142"/><ellipse cx="1073" cy="158" fill="#ADD1B2" rx="11" ry="11" style="stroke:#181818;stroke-width:1.0;"/><path d="M1075.3438,153.6719 C1074.4063,153.2344 1073.8125,153.0938 1072.9375,153.0938 C1070.3125,153.0938 1068.3125,155.1719 1068.3125,157.8906 L1068.3125,159.0156 C1068.3125,161.5938 1070.4219,163.4844 1073.3125,163.4844 C1074.5313,163.4844 1075.6875,163.1875 1076.4375,162.6406 C1077.0156,162.2344 1077.3438,161.7813 1077.3438,161.3906 C1077.3438,160.9375 1076.9531,160.5469 1076.4844,160.5469 C1076.2656,160.5469 1076.0625,160.625 1075.875,160.8125 C1075.4219,161.2969 1075.4219,161.2969 1075.2344,161.3906 C1074.8125,161.6563 1074.125,161.7813 1073.3594,161.7813 C1071.3125,161.7813 1070.0156,160.6875 1070.0156,158.9844 L1070.0156,157.8906 C1070.0156,156.1094 1071.2656,154.7969 1073,154.7969 C1073.5781,154.7969 1074.1875,154.9531 1074.6563,155.2031 C1075.1406,155.4844 1075.3125,155.7031 1075.4063,156.1094 C1075.4688,156.5156 1075.5,156.6406 1075.6406,156.7656 C1075.7813,156.9063 1076.0156,157.0156 1076.2344,157.0156 C1076.5,157.0156 1076.7656,156.875 1076.9375,156.6563 C1077.0469,156.5 1077.0781,156.3125 1077.0781,155.8906 L1077.0781,154.4688 C1077.0781,154.0313 1077.0625,153.9063 1076.9688,153.75 C1076.8125,153.4844 1076.5313,153.3438 1076.2344,153.3438 C1075.9375,153.3438 1075.7344,153.4375 1075.5156,153.75 L1075.3438,153.6719 Z " fill="#000000"/><text fill="#000000" font-family="sans-serif" font-size="14" lengthAdjust="spacing" textLength="54" x="1087" y="162.8467">Class10</text><line style="stroke:#181818;stroke-width:0.5;" x1="1059" x2="1143" y1="174" y2="174"/><line style="stroke:#181818;stroke-width:0.5;" x1="1059" x2="1143" y1="182" y2="182"/></g><!--class Class101--><g id="elem_Class101"><rect fill="#F1F1F1" height="48" id="Class101" rx="2.5" ry="2.5" style="stroke:#181818;stroke-width:0.5;" width="95" x="1179.5" y="7"/><ellipse cx="1194.5" cy="23" fill="#ADD1B2" rx="11" ry="11" style="stroke:#181818;stroke-width:1.0;"/><path d="M1196.8438,18.6719 C1195.9063,18.2344 1195.3125,18.0938 1194.4375,18.0938 C1191.8125,18.0938 1189.8125,20.1719 1189.8125,22.8906 L1189.8125,24.0156 C1189.8125,26.5938 1191.9219,28.4844 1194.8125,28.4844 C1196.0313,28.4844 1197.1875,28.1875 1197.9375,27.6406 C1198.5156,27.2344 1198.8438,26.7813 1198.8438,26.3906 C1198.8438,25.9375 1198.4531,25.5469 1197.9844,25.5469 C1197.7656,25.5469 1197.5625,25.625 1197.375,25.8125 C1196.9219,26.2969 1196.9219,26.2969 1196.7344,26.3906 C1196.3125,26.6563 1195.625,26.7813 1194.8594,26.7813 C1192.8125,26.7813 1191.5156,25.6875 1191.5156,23.9844 L1191.5156,22.8906 C1191.5156,21.1094 1192.7656,19.7969 1194.5,19.7969 C1195.0781,19.7969 1195.6875,19.9531 1196.1563,20.2031 C1196.6406,20.4844 1196.8125,20.7031 1196.9063,21.1094 C1196.9688,21.5156 1197,21.6406 1197.1406,21.7656 C1197.2813,21.9063 1197.5156,22.0156 1197.7344,22.0156 C1198,22.0156 1198.2656,21.875 1198.4375,21.6563 C1198.5469,21.5 1198.5781,21.3125 1198.5781,20.8906 L1198.5781,19.4688 C1198.5781,19.0313 1198.5625,18.9063 1198.4688,18.75 C1198.3125,18.4844 1198.0313,18.3438 1197.7344,18.3438 C1197.4375,18.3438 1197.2344,18.4375 1197.0156,18.75 L1196.8438,18.6719 Z " fill="#000000"/><text fill="#000000" font-family="sans-serif" font-size="14" lengthAdjust="spacing" textLength="63" x="1208.5" y="27.8467">Class101</text><line style="stroke:#181818;stroke-width:0.5;" x1="1180.5" x2="1273.5" y1="39" y2="39"/><line style="stroke:#181818;stroke-width:0.5;" x1="1180.5" x2="1273.5" y1="47" y2="47"/></g><!--class Class102--><g id="elem_Class102"><rect fill="#F1F1F1" height="48" id="Class102" rx="2.5" ry="2.5" style="stroke:#181818;stroke-width:0.5;" width="94" x="1180" y="142"/><ellipse cx="1195" cy="158" fill="#ADD1B2" rx="11" ry="11" style="stroke:#181818;stroke-width:1.0;"/><path d="M1197.3438,153.6719 C1196.4063,153.2344 1195.8125,153.0938 1194.9375,153.0938 C1192.3125,153.0938 1190.3125,155.1719 1190.3125,157.8906 L1190.3125,159.0156 C1190.3125,161.5938 1192.4219,163.4844 1195.3125,163.4844 C1196.5313,163.4844 1197.6875,163.1875 1198.4375,162.6406 C1199.0156,162.2344 1199.3438,161.7813 1199.3438,161.3906 C1199.3438,160.9375 1198.9531,160.5469 1198.4844,160.5469 C1198.2656,160.5469 1198.0625,160.625 1197.875,160.8125 C1197.4219,161.2969 1197.4219,161.2969 1197.2344,161.3906 C1196.8125,161.6563 1196.125,161.7813 1195.3594,161.7813 C1193.3125,161.7813 1192.0156,160.6875 1192.0156,158.9844 L1192.0156,157.8906 C1192.0156,156.1094 1193.2656,154.7969 1195,154.7969 C1195.5781,154.7969 1196.1875,154.9531 1196.6563,155.2031 C1197.1406,155.4844 1197.3125,155.7031 1197.4063,156.1094 C1197.4688,156.5156 1197.5,156.6406 1197.6406,156.7656 C1197.7813,156.9063 1198.0156,157.0156 1198.2344,157.0156 C1198.5,157.0156 1198.7656,156.875 1198.9375,156.6563 C1199.0469,156.5 1199.0781,156.3125 1199.0781,155.8906 L1199.0781,154.4688 C1199.0781,154.0313 1199.0625,153.9063 1198.9688,153.75 C1198.8125,153.4844 1198.5313,153.3438 1198.2344,153.3438 C1197.9375,153.3438 1197.7344,153.4375 1197.5156,153.75 L1197.3438,153.6719 Z " fill="#000000"/><text fill="#000000" font-family="sans-serif" font-size="14" lengthAdjust="spacing" textLength="62" x="1209" y="162.8467">Class102</text><line style="stroke:#181818;stroke-width:0.5;" x1="1181" x2="1273" y1="174" y2="174"/><line style="stroke:#181818;stroke-width:0.5;" x1="1181" x2="1273" y1="182" y2="182"/></g><!--class Class103--><g id="elem_Class103"><rect fill="#F1F1F1" height="48" id="Class103" rx="2.5" ry="2.5" style="stroke:#181818;stroke-width:0.5;" width="95" x="1309.5" y="7"/><ellipse cx="1324.5" cy="23" fill="#ADD1B2" rx="11" ry="11" style="stroke:#181818;stroke-width:1.0;"/><path d="M1326.8438,18.6719 C1325.9063,18.2344 1325.3125,18.0938 1324.4375,18.0938 C1321.8125,18.0938 1319.8125,20.1719 1319.8125,22.8906 L1319.8125,24.0156 C1319.8125,26.5938 1321.9219,28.4844 1324.8125,28.4844 C1326.0313,28.4844 1327.1875,28.1875 1327.9375,27.6406 C1328.5156,27.2344 1328.8438,26.7813 1328.8438,26.3906 C1328.8438,25.9375 1328.4531,25.5469 1327.9844,25.5469 C1327.7656,25.5469 1327.5625,25.625 1327.375,25.8125 C1326.9219,26.2969 1326.9219,26.2969 1326.7344,26.3906 C1326.3125,26.6563 1325.625,26.7813 1324.8594,26.7813 C1322.8125,26.7813 1321.5156,25.6875 1321.5156,23.9844 L1321.5156,22.8906 C1321.5156,21.1094 1322.7656,19.7969 1324.5,19.7969 C1325.0781,19.7969 1325.6875,19.9531 1326.1563,20.2031 C1326.6406,20.4844 1326.8125,20.7031 1326.9063,21.1094 C1326.9688,21.5156 1327,21.6406 1327.1406,21.7656 C1327.2813,21.9063 1327.5156,22.0156 1327.7344,22.0156 C1328,22.0156 1328.2656,21.875 1328.4375,21.6563 C1328.5469,21.5 1328.5781,21.3125 1328.5781,20.8906 L1328.5781,19.4688 C1328.5781,19.0313 1328.5625,18.9063 1328.4688,18.75 C1328.3125,18.4844 1328.0313,18.3438 1327.7344,18.3438 C1327.4375,18.3438 1327.2344,18.4375 1327.0156,18.75 L1326.8438,18.6719 Z " fill="#000000"/><text fill="#000000" font-family="sans-serif" font-size="14" lengthAdjust="spacing" textLength="63" x="1338.5" y="27.8467">Class103</text><line style="stroke:#181818;stroke-width:0.5;" x1="1310.5" x2="1403.5" y1="39" y2="39"/><line style="stroke:#181818;stroke-width:0.5;" x1="1310.5" x2="1403.5" y1="47" y2="47"/></g><!--class Class104--><g id="elem_Class104"><rect fill="#F1F1F1" height="48" id="Class104" rx="2.5" ry="2.5" style="stroke:#181818;stroke-width:0.5;" width="94" x="1310" y="142"/><ellipse cx="1325" cy="158" fill="#ADD1B2" rx="11" ry="11" style="stroke:#181818;stroke-width:1.0;"/><path d="M1327.3438,153.6719 C1326.4063,153.2344 1325.8125,153.0938 1324.9375,153.0938 C1322.3125,153.0938 1320.3125,155.1719 1320.3125,157.8906 L1320.3125,159.0156 C1320.3125,161.5938 1322.4219,163.4844 1325.3125,163.4844 C1326.5313,163.4844 1327.6875,163.1875 1328.4375,162.6406 C1329.0156,162.2344 1329.3438,161.7813 1329.3438,161.3906 C1329.3438,160.9375 1328.9531,160.5469 1328.4844,160.5469 C1328.2656,160.5469 1328.0625,160.625 1327.875,160.8125 C1327.4219,161.2969 1327.4219,161.2969 1327.2344,161.3906 C1326.8125,161.6563 1326.125,161.7813 1325.3594,161.7813 C1323.3125,161.7813 1322.0156,160.6875 1322.0156,158.9844 L1322.0156,157.8906 C1322.0156,156.1094 1323.2656,154.7969 1325,154.7969 C1325.5781,154.7969 1326.1875,154.9531 1326.6563,155.2031 C1327.1406,155.4844 1327.3125,155.7031 1327.4063,156.1094 C1327.4688,156.5156 1327.5,156.6406 1327.6406,156.7656 C1327.7813,156.9063 1328.0156,157.0156 1328.2344,157.0156 C1328.5,157.0156 1328.7656,156.875 1328.9375,156.6563 C1329.0469,156.5 1329.0781,156.3125 1329.0781,155.8906 L1329.0781,154.4688 C1329.0781,154.0313 1329.0625,153.9063 1328.9688,153.75 C1328.8125,153.4844 1328.5313,153.3438 1328.2344,153.3438 C1327.9375,153.3438 1327.7344,153.4375 1327.5156,153.75 L1327.3438,153.6719 Z " fill="#000000"/><text fill="#000000" font-family="sans-serif" font-size="14" lengthAdjust="spacing" textLength="62" x="1339" y="162.8467">Class104</text><line style="stroke:#181818;stroke-width:0.5;" x1="1311" x2="1403" y1="174" y2="174"/><line style="stroke:#181818;stroke-width:0.5;" x1="1311" x2="1403" y1="182" y2="182"/></g><!--class Class105--><g id="elem_Class105"><rect fill="#F1F1F1" height="48" id="Class105" rx="2.5" ry="2.5" style="stroke:#181818;stroke-width:0.5;" width="95" x="1439.5" y="7"/><ellipse cx="1454.5" cy="23" fill="#ADD1B2" rx="11" ry="11" style="stroke:#181818;stroke-width:1.0;"/><path d="M1456.8438,18.6719 C1455.9063,18.2344 1455.3125,18.0938 1454.4375,18.0938 C1451.8125,18.0938 1449.8125,20.1719 1449.8125,22.8906 L1449.8125,24.0156 C1449.8125,26.5938 1451.9219,28.4844 1454.8125,28.4844 C1456.0313,28.4844 1457.1875,28.1875 1457.9375,27.6406 C1458.5156,27.2344 1458.8438,26.7813 1458.8438,26.3906 C1458.8438,25.9375 1458.4531,25.5469 1457.9844,25.5469 C1457.7656,25.5469 1457.5625,25.625 1457.375,25.8125 C1456.9219,26.2969 1456.9219,26.2969 1456.7344,26.3906 C1456.3125,26.6563 1455.625,26.7813 1454.8594,26.7813 C1452.8125,26.7813 1451.5156,25.6875 1451.5156,23.9844 L1451.5156,22.8906 C1451.5156,21.1094 1452.7656,19.7969 1454.5,19.7969 C1455.0781,19.7969 1455.6875,19.9531 1456.1563,20.2031 C1456.6406,20.4844 1456.8125,20.7031 1456.9063,21.1094 C1456.9688,21.5156 1457,21.6406 1457.1406,21.7656 C1457.2813,21.9063 1457.5156,22.0156 1457.7344,22.0156 C1458,22.0156 1458.2656,21.875 1458.4375,21.6563 C1458.5469,21.5 1458.5781,21.3125 1458.5781,20.8906 L1458.5781,19.4688 C1458.5781,19.0313 1458.5625,18.9063 1458.4688,18.75 C1458.3125,18.4844 1458.0313,18.3438 1457.7344,18.3438 C1457.4375,18.3438 1457.2344,18.4375 1457.0156,18.75 L1456.8438,18.6719 Z " fill="#000000"/><text fill="#000000" font-family="sans-serif" font-size="14" lengthAdjust="spacing" textLength="63" x="1468.5" y="27.8467">Class105</text><line style="stroke:#181818;stroke-width:0.5;" x1="1440.5" x2="1533.5" y1="39" y2="39"/><line style="stroke:#181818;stroke-width:0.5;" x1="1440.5" x2="1533.5" y1="47" y2="47"/></g><!--class Class106--><g id="elem_Class106"><rect fill="#F1F1F1" height="48" id="Class106" rx="2.5" ry="2.5" style="stroke:#181818;stroke-width:0.5;" width="95" x="1439.5" y="142"/><ellipse cx="1454.5" cy="158" fill="#ADD1B2" rx="11" ry="11" style="stroke:#181818;stroke-width:1.0;"/><path d="M1456.8438,153.6719 C1455.9063,153.2344 1455.3125,153.0938 1454.4375,153.0938 C1451.8125,153.0938 1449.8125,155.1719 1449.8125,157.8906 L1449.8125,159.0156 C1449.8125,161.5938 1451.9219,163.4844 1454.8125,163.4844 C1456.0313,163.4844 1457.1875,163.1875 1457.9375,162.6406 C1458.5156,162.2344 1458.8438,161.7813 1458.8438,161.3906 C1458.8438,160.9375 1458.4531,160.5469 1457.9844,160.5469 C1457.7656,160.5469 1457.5625,160.625 1457.375,160.8125 C1456.9219,161.2969 1456.9219,161.2969 1456.7344,161.3906 C1456.3125,161.6563 1455.625,161.7813 1454.8594,161.7813 C1452.8125,161.7813 1451.5156,160.6875 1451.5156,158.9844 L1451.5156,157.8906 C1451.5156,156.1094 1452.7656,154.7969 1454.5,154.7969 C1455.0781,154.7969 1455.6875,154.9531 1456.1563,155.2031 C1456.6406,155.4844 1456.8125,155.7031 1456.9063,156.1094 C1456.9688,156.5156 1457,156.6406 1457.1406,156.7656 C1457.2813,156.9063 1457.5156,157.0156 1457.7344,157.0156 C1458,157.0156 1458.2656,156.875 1458.4375,156.6563 C1458.5469,156.5 1458.5781,156.3125 1458.5781,155.8906 L1458.5781,154.4688 C1458.5781,154.0313 1458.5625,153.9063 1458.4688,153.75 C1458.3125,153.4844 1458.0313,153.3438 1457.7344,153.3438 C1457.4375,153.3438 1457.2344,153.4375 1457.0156,153.75 L1456.8438,153.6719 Z " fill="#000000"/><text fill="#000000" font-family="sans-serif" font-size="14" lengthAdjust="spacing" textLength="63" x="1468.5" y="162.8467">Class106</text><line style="stroke:#181818;stroke-width:0.5;" x1="1440.5" x2="1533.5" y1="174" y2="174"/><line style="stroke:#181818;stroke-width:0.5;" x1="1440.5" x2="1533.5" y1="182" y2="182"/></g><!--class Dummy--><g id="elem_Dummy"><rect codeLine="36" fill="#F1F1F1" height="80.5938" id="Dummy" rx="2.5" ry="2.5" style="stroke:#181818;stroke-width:0.5;" width="120" x="405" y="256"/><ellipse cx="434.85" cy="272" fill="#ADD1B2" rx="11" ry="11" style="stroke:#181818;stroke-width:1.0;"/><path d="M437.1938,267.6719 C436.2563,267.2344 435.6625,267.0938 434.7875,267.0938 C432.1625,267.0938 430.1625,269.1719 430.1625,271.8906 L430.1625,273.0156 C430.1625,275.5938 432.2719,277.4844 435.1625,277.4844 C436.3813,277.4844 437.5375,277.1875 438.2875,276.6406 C438.8656,276.2344 439.1938,275.7813 439.1938,275.3906 C439.1938,274.9375 438.8031,274.5469 438.3344,274.5469 C438.1156,274.5469 437.9125,274.625 437.725,274.8125 C437.2719,275.2969 437.2719,275.2969 437.0844,275.3906 C436.6625,275.6563 435.975,275.7813 435.2094,275.7813 C433.1625,275.7813 431.8656,274.6875 431.8656,272.9844 L431.8656,271.8906 C431.8656,270.1094 433.1156,268.7969 434.85,268.7969 C435.4281,268.7969 436.0375,268.9531 436.5063,269.2031 C436.9906,269.4844 437.1625,269.7031 437.2563,270.1094 C437.3188,270.5156 437.35,270.6406 437.4906,270.7656 C437.6313,270.9063 437.8656,271.0156 438.0844,271.0156 C438.35,271.0156 438.6156,270.875 438.7875,270.6563 C438.8969,270.5 438.9281,270.3125 438.9281,269.8906 L438.9281,268.4688 C438.9281,268.0313 438.9125,267.9063 438.8188,267.75 C438.6625,267.4844 438.3813,267.3438 438.0844,267.3438 C437.7875,267.3438 437.5844,267.4375 437.3656,267.75 L437.1938,267.6719 Z " fill="#000000"/><text fill="#000000" font-family="sans-serif" font-size="14" lengthAdjust="spacing" textLength="55" x="452.15" y="276.8467">Dummy</text><line style="stroke:#181818;stroke-width:0.5;" x1="406" x2="524" y1="288" y2="288"/><text fill="#000000" font-family="sans-serif" font-size="14" lengthAdjust="spacing" textLength="80" x="411" y="304.9951">String data</text><line style="stroke:#181818;stroke-width:0.5;" x1="406" x2="524" y1="312.2969" y2="312.2969"/><text fill="#000000" font-family="sans-serif" font-size="14" lengthAdjust="spacing" textLength="108" x="411" y="329.292">void methods()</text></g><!--class Flight--><g id="elem_Flight"><rect codeLine="41" fill="#F1F1F1" height="80.5938" id="Flight" rx="2.5" ry="2.5" style="stroke:#181818;stroke-width:0.5;" width="174" x="7" y="398"/><ellipse cx="69.25" cy="414" fill="#ADD1B2" rx="11" ry="11" style="stroke:#181818;stroke-width:1.0;"/><path d="M71.5938,409.6719 C70.6563,409.2344 70.0625,409.0938 69.1875,409.0938 C66.5625,409.0938 64.5625,411.1719 64.5625,413.8906 L64.5625,415.0156 C64.5625,417.5938 66.6719,419.4844 69.5625,419.4844 C70.7813,419.4844 71.9375,419.1875 72.6875,418.6406 C73.2656,418.2344 73.5938,417.7813 73.5938,417.3906 C73.5938,416.9375 73.2031,416.5469 72.7344,416.5469 C72.5156,416.5469 72.3125,416.625 72.125,416.8125 C71.6719,417.2969 71.6719,417.2969 71.4844,417.3906 C71.0625,417.6563 70.375,417.7813 69.6094,417.7813 C67.5625,417.7813 66.2656,416.6875 66.2656,414.9844 L66.2656,413.8906 C66.2656,412.1094 67.5156,410.7969 69.25,410.7969 C69.8281,410.7969 70.4375,410.9531 70.9063,411.2031 C71.3906,411.4844 71.5625,411.7031 71.6563,412.1094 C71.7188,412.5156 71.75,412.6406 71.8906,412.7656 C72.0313,412.9063 72.2656,413.0156 72.4844,413.0156 C72.75,413.0156 73.0156,412.875 73.1875,412.6563 C73.2969,412.5 73.3281,412.3125 73.3281,411.8906 L73.3281,410.4688 C73.3281,410.0313 73.3125,409.9063 73.2188,409.75 C73.0625,409.4844 72.7813,409.3438 72.4844,409.3438 C72.1875,409.3438 71.9844,409.4375 71.7656,409.75 L71.5938,409.6719 Z " fill="#000000"/><text fill="#000000" font-family="sans-serif" font-size="14" lengthAdjust="spacing" textLength="41" x="89.75" y="418.8467">Flight</text><line style="stroke:#181818;stroke-width:0.5;" x1="8" x2="180" y1="430" y2="430"/><text fill="#000000" font-family="sans-serif" font-size="14" lengthAdjust="spacing" textLength="162" x="13" y="446.9951">flightNumber : Integer</text><text fill="#000000" font-family="sans-serif" font-size="14" lengthAdjust="spacing" textLength="156" x="13" y="463.292">departureTime : Date</text><line style="stroke:#181818;stroke-width:0.5;" x1="8" x2="180" y1="470.5938" y2="470.5938"/></g><!--reverse link Class01 to Class02--><g id="link_Class01_Class02"><path codeLine="14" d="M591.091,72.3294 C583.419,96.5914 588.827,117.323 596.461,141.652 " fill="none" id="Class01-backto-Class02" style="stroke:#181818;stroke-width:1.0;"/><polygon fill="none" points="596.518,55.167,585.3702,70.5204,596.8118,74.1384,596.518,55.167" style="stroke:#181818;stroke-width:1.0;"/></g><!--reverse link Class01 to Class02--><g id="link_Class01_Class02"><path codeLine="20" d="M617,73.167 C617,97.429 617,117.323 617,141.652 " fill="none" id="Class01-backto-Class02-1" style="stroke:#181818;stroke-width:1.0;stroke-dasharray:7.0,7.0;"/><polygon fill="none" points="617,55.167,611,73.167,623,73.167,617,55.167" style="stroke:#181818;stroke-width:1.0;"/></g><!--reverse link Class01 to Class02--><g id="link_Class01_Class02"><path codeLine="26" d="M638.9895,59.9343 C646.6615,84.1963 645.173,117.323 637.539,141.652 " fill="none" id="Class01-backto-Class02-2" style="stroke:#181818;stroke-width:1.0;"/><rect fill="#FFFFFF" height="10" style="stroke:#181818;stroke-width:1.5;" width="10" x="632.482" y="50.167"/></g><!--reverse link Class03 to Class04--><g id="link_Class03_Class04"><path codeLine="15" d="M713.9,66.6086 C706.228,90.8706 709.827,117.323 717.461,141.652 " fill="none" id="Class03-backto-Class04" style="stroke:#181818;stroke-width:1.0;"/><polygon fill="#181818" points="717.518,55.167,711.8951,59.6818,713.9,66.6086,719.5229,62.0938,717.518,55.167" style="stroke:#181818;stroke-width:1.0;"/></g><!--link Class03 to Class04--><g id="link_Class03_Class04"><path codeLine="21" d="M738,55.167 C738,79.429 738,111.323 738,135.652 " fill="none" id="Class03-to-Class04" style="stroke:#181818;stroke-width:1.0;"/><polygon fill="#181818" points="738,141.652,742,132.652,738,136.652,734,132.652,738,141.652" style="stroke:#181818;stroke-width:1.0;"/></g><!--reverse link Class03 to Class04--><g id="link_Class03_Class04"><path codeLine="27" d="M760.894,62.7947 C768.566,87.0567 766.173,117.323 758.539,141.652 " fill="none" id="Class03-backto-Class04-1" style="stroke:#181818;stroke-width:1.0;"/><path d="M756.1756,61.1403 L766.2154,66.3561 M763.8034,58.7283 L758.5876,68.7681 " fill="none" style="stroke:#181818;stroke-width:1.0;"/></g><!--reverse link Class05 to Class06--><g id="link_Class05_Class06"><path codeLine="16" d="M834.9,66.6086 C827.228,90.8706 830.827,117.323 838.461,141.652 " fill="none" id="Class05-backto-Class06" style="stroke:#181818;stroke-width:1.0;"/><polygon fill="none" points="838.518,55.167,832.8951,59.6818,834.9,66.6086,840.5229,62.0938,838.518,55.167" style="stroke:#181818;stroke-width:1.0;"/></g><!--link Class05 to Class06--><g id="link_Class05_Class06"><path codeLine="22" d="M859,55.167 C859,79.429 859,111.323 859,135.652 " fill="none" id="Class05-to-Class06" style="stroke:#181818;stroke-width:1.0;stroke-dasharray:7.0,7.0;"/><polygon fill="#181818" points="859,141.652,863,132.652,859,136.652,855,132.652,859,141.652" style="stroke:#181818;stroke-width:1.0;"/></g><!--reverse link Class05 to Class06--><g id="link_Class05_Class06"><path codeLine="28" d="M881.894,62.7947 C889.566,87.0567 887.173,117.323 879.539,141.652 " fill="none" id="Class05-backto-Class06-1" style="stroke:#181818;stroke-width:1.0;"/><line style="stroke:#181818;stroke-width:1.0;" x1="881.894" x2="871.8543" y1="62.7947" y2="55.167"/><line style="stroke:#181818;stroke-width:1.0;" x1="881.894" x2="887.1097" y1="62.7947" y2="55.167"/><line style="stroke:#181818;stroke-width:1.0;" x1="881.894" x2="879.482" y1="62.7947" y2="55.167"/></g><!--link Class07 to Class08--><g id="link_Class07_Class08"><path codeLine="17" d="M959.518,55.167 C951.846,79.429 951.827,117.323 959.461,141.652 " fill="none" id="Class07-Class08" style="stroke:#181818;stroke-width:1.0;stroke-dasharray:7.0,7.0;"/></g><!--link Class07 to Class08--><g id="link_Class07_Class08"><path codeLine="23" d="M980,55.167 C980,79.429 980,99.323 980,123.652 " fill="none" id="Class07-to-Class08" style="stroke:#181818;stroke-width:1.0;stroke-dasharray:7.0,7.0;"/><polygon fill="none" points="980,141.652,986,123.652,974,123.652,980,141.652" style="stroke:#181818;stroke-width:1.0;"/></g><!--reverse link Class07 to Class08--><g id="link_Class07_Class08"><path codeLine="29" d="M1005.3037,70.4232 C1012.9717,94.6852 1008.17,117.323 1000.539,141.652 " fill="none" id="Class07-backto-Class08" style="stroke:#181818;stroke-width:1.0;"/><ellipse cx="1002.8929" cy="62.7951" fill="#FFFFFF" rx="8" ry="8" style="stroke:#181818;stroke-width:1.0;"/><line style="stroke:#181818;stroke-width:1.0;" x1="1005.3037" x2="1000.482" y1="70.4232" y2="55.167"/><line style="stroke:#181818;stroke-width:1.0;" x1="995.2648" x2="1010.5209" y1="65.2059" y2="60.3842"/></g><!--link Class09 to Class10--><g id="link_Class09_Class10"><path codeLine="18" d="M1080.52,55.167 C1072.85,79.429 1072.83,117.323 1080.46,141.652 " fill="none" id="Class09-Class10" style="stroke:#181818;stroke-width:1.0;"/></g><!--link Class09 to Class10--><g id="link_Class09_Class10"><path codeLine="24" d="M1101,61.167 C1101,85.429 1101,105.323 1101,129.652 " fill="none" id="Class09-Class10-1" style="stroke:#181818;stroke-width:1.0;"/><polygon fill="#181818" points="1101,55.167,1097,64.167,1101,60.167,1105,64.167,1101,55.167" style="stroke:#181818;stroke-width:1.0;"/><polygon fill="#181818" points="1101,141.652,1105,135.652,1101,129.652,1097,135.652,1101,141.652" style="stroke:#181818;stroke-width:1.0;"/></g><!--reverse link Class09 to Class10--><g id="link_Class09_Class10"><path codeLine="30" d="M1126.9057,72.3298 C1134.5757,96.5918 1129.17,117.323 1121.54,141.652 " fill="none" id="Class09-backto-Class10" style="stroke:#181818;stroke-width:1.0;"/><polygon fill="none" points="1121.48,55.167,1121.1848,74.1384,1132.6266,70.5212,1121.48,55.167" style="stroke:#181818;stroke-width:1.0;"/></g><!--reverse link Class101 to Class102--><g id="link_Class101_Class102"><path codeLine="32" d="M1227,67.167 C1227,91.429 1227,117.323 1227,141.652 " fill="none" id="Class101-backto-Class102" style="stroke:#181818;stroke-width:1.0;"/><polygon fill="#181818" points="1227,55.167,1223,61.167,1227,67.167,1231,61.167,1227,55.167" style="stroke:#181818;stroke-width:1.0;"/><text fill="#000000" font-family="sans-serif" font-size="13" lengthAdjust="spacing" textLength="54" x="1228" y="103.0669">contains</text><text fill="#000000" font-family="sans-serif" font-size="13" lengthAdjust="spacing" textLength="8" x="1218.025" y="74.9689">1</text><text fill="#000000" font-family="sans-serif" font-size="13" lengthAdjust="spacing" textLength="37" x="1185.4906" y="130.9721">many</text></g><!--reverse link Class103 to Class104--><g id="link_Class103_Class104"><path codeLine="33" d="M1357,67.167 C1357,91.429 1357,117.323 1357,141.652 " fill="none" id="Class103-backto-Class104" style="stroke:#181818;stroke-width:1.0;"/><polygon fill="none" points="1357,55.167,1353,61.167,1357,67.167,1361,61.167,1357,55.167" style="stroke:#181818;stroke-width:1.0;"/><text fill="#000000" font-family="sans-serif" font-size="13" lengthAdjust="spacing" textLength="77" x="1358" y="103.0669">aggregation</text></g><!--link Class105 to Class106--><g id="link_Class105_Class106"><path codeLine="34" d="M1487,55.167 C1487,79.429 1487,111.323 1487,135.652 " fill="none" id="Class105-to-Class106" style="stroke:#181818;stroke-width:1.0;"/><polygon fill="#181818" points="1487,141.652,1491,132.652,1487,136.652,1483,132.652,1487,141.652" style="stroke:#181818;stroke-width:1.0;"/><text fill="#000000" font-family="sans-serif" font-size="13" lengthAdjust="spacing" textLength="8" x="1478.025" y="130.9721">1</text></g><!--SRC=[ZP8_Ry8m4CLtVufJkW1L8WA5_X7AKbIfIvTsBZA92PQmNJcNggZmtUia5mUK3FNaz_FpFPzjlYtGyXI11YVDsWca1ruK0C4r2FvXqDeWHsaqbVQQfTAc1m5-D9gDnd0r6hmfziRYPcUiOfJLEIhDCicLqPcdfDagkQv7_BAWq2Zns5aQxN2fBdTMcacDmkvusXxSQyQUgtDCOrYTmX0QCICuXubdTyGMO3nR4hk7A2BqGEWHMbSylSpmnYuZ39DUHXGb0ncdf9Uo2iD9F-Tce9MVWLRE0wtSUjQbVFQQYLrA40Vr1GMAwsFG6cRm1AdHoAKkMk-ykxHuUkSCFC-jo9iVHNXHNqHLay2IqPzPbqeTuPS1lAELEeUC8tVgsyWCbC2zoOhHc9rR_yj1vdkiDy2kdh-LQYkiotrrxvuBMwrauejRBAtua4gufJL7mSv_]--></g></svg>